<svg xmlns="http://www.w3.org/2000/svg" width="1em" height="1em" viewBox="0 0 15 15"><path fill="white" d="m7.5 13.5l-.354.354a.5.5 0 0 0 .708 0zM1.536 7.536l-.354.353zm5-5l-.354.353zM7.5 3.5l-.354.354a.5.5 0 0 0 .708 0zm.964-.964l-.353-.354zm-.61 10.61L1.889 7.182l-.707.707l5.964 5.965zm5.257-5.964l-5.965 5.964l.708.708l5.964-5.965zM6.182 2.889l.964.965l.708-.708l-.965-.964zm1.672.965l.964-.965l-.707-.707l-.965.964zM10.964 1c-1.07 0-2.096.425-2.853 1.182l.707.707A3.037 3.037 0 0 1 10.964 2zM14 5.036c0 .805-.32 1.577-.89 2.146l.708.707A4.036 4.036 0 0 0 15 5.036zm1 0A4.036 4.036 0 0 0 10.964 1v1A3.036 3.036 0 0 1 14 5.036zM4.036 2c.805 0 1.577.32 2.146.89l.707-.708A4.036 4.036 0 0 0 4.036 1zM1 5.036A3.036 3.036 0 0 1 4.036 2V1A4.036 4.036 0 0 0 0 5.036zm.89 2.146A3.035 3.035 0 0 1 1 5.036H0c0 1.07.425 2.096 1.182 2.853z"/></svg>